<?xml version="1.0" encoding="UTF-8" standalone="no"?>
<!DOCTYPE svg PUBLIC "-//W3C//DTD SVG 1.1//EN" "http://www.w3.org/Graphics/SVG/1.1/DTD/svg11.dtd">
<svg width="100%" height="100%" viewBox="0 0 186 97" version="1.1" xmlns="http://www.w3.org/2000/svg" xmlns:xlink="http://www.w3.org/1999/xlink" xml:space="preserve" xmlns:serif="http://www.serif.com/" style="fill-rule:evenodd;clip-rule:evenodd;">
    <g transform="matrix(0.922227,0,0,0.973635,11.5882,1.18643)">
        <path d="M151.799,51.299C154.618,41.691 171.581,44.203 173.418,51.299C175.254,58.395 176.952,61.798 173.418,73.517L151.799,73.517C147.253,66.342 148.98,60.907 151.799,51.299Z" style="fill:rgb(254,208,181);fill-rule:nonzero;"/>
    </g>
    <g>
        <path d="M171.878,72C171.878,72 172.387,79.129 168.823,93.388C168.341,95.317 164.191,95.322 163.731,93.388C162.281,87.299 161.987,83.191 161.814,80.782C161.684,78.961 161.623,78.111 161.185,78.111C160.726,78.111 160.68,79.041 160.583,81.041C160.522,82.286 160.441,83.945 160.228,86.052C160.023,88.074 159.696,90.51 159.148,93.388C158.776,95.341 154.503,95.325 154.055,93.388C151,80.148 151,72 151,72L171.878,72ZM160.228,86.052L157.999,87.36L156.499,89.36L155.999,86.86L154.055,85.36L155.499,84.86L154.999,81.36L156.499,83.36L158.499,82.36L158.499,85.36L160.228,86.052Z" style="fill:rgb(35,83,113);"/>
        <path d="M154.999,81.36L156.499,83.36L158.499,82.36L158.499,85.36L160.228,86.052L157.999,87.36L156.499,89.36L155.999,86.86L154.055,85.36L155.499,84.86L154.999,81.36Z" style="fill:rgb(254,208,181);fill-rule:nonzero;"/>
    </g>
    <path d="M160.228,86.052C160.023,88.074 159.696,90.51 159.148,93.388C158.776,95.341 154.503,95.325 154.055,93.388C151,80.148 151,72 151,72L171.878,72C171.878,72 172.387,79.129 168.823,93.388C168.341,95.317 164.191,95.322 163.731,93.388C162.281,87.299 161.987,83.191 161.814,80.782C161.684,78.961 161.623,78.111 161.185,78.111C160.726,78.111 160.68,79.041 160.583,81.041C160.522,82.286 160.441,83.945 160.228,86.052ZM160.228,86.052L158.499,85.36L158.499,82.36L156.499,83.36L154.999,81.36L155.499,84.86L154.055,85.36L155.999,86.86L156.499,89.36L157.999,87.36L160.228,86.052Z" style="fill:none;fill-rule:nonzero;stroke:black;stroke-width:1px;"/>
    <path d="M172.181,50.563L172.181,50.563C170.87,46.093 166.242,44.349 161.515,44.657C159.171,44.81 156.866,45.47 155.047,46.511C153.222,47.556 151.94,48.95 151.526,50.547C151.336,51.284 151.146,51.981 150.965,52.649L150.965,52.649C150.178,55.551 149.543,57.898 149.485,60.821C149.436,63.262 149.79,66.125 150.826,70.046L150.879,70.028L151.391,69.85L150.758,69.411L151.231,68.537L153.381,69.412L154.146,68.646L155,67.793L155,70.111L157.338,70.707L158.284,70.948L157.536,71.575L156.861,72.14L167,72.14L167,67.785L167.922,69.231L169.774,72.14L172.384,72.14C173.095,70.989 173.637,69.888 174.036,68.812L174.04,68.802L174.509,68.976L174.04,68.802L174.045,68.787C174.336,68.002 175.476,64.93 174.016,57.106C173.568,55.284 172.99,53.315 172.343,51.112L172.181,50.563ZM151.938,72.14L151.19,71.37C151.262,71.622 151.337,71.879 151.415,72.14L151.938,72.14Z" style="fill:rgb(236,234,218);fill-rule:nonzero;stroke:black;stroke-width:1px;"/>
    <path d="M178.529,70.025C177.158,73.316 175.015,75.143 172.948,72.85C171.465,71.206 171.934,69.775 172.655,68.142L178.529,70.025Z" style="fill:rgb(254,208,181);fill-rule:nonzero;"/>
    <path d="M172.948,59.748C174.843,63.272 173.762,65.675 172.842,67.722C172.779,67.864 172.716,68.004 172.655,68.142L178.529,70.025C179.735,67.13 180.342,63.101 179.771,59.748L178.121,61.13L177.659,59.748L176.22,59.281L177.659,58.356L176.734,56.045L178.753,56.626C175.181,49.985 170.986,45.3 169.383,46.162C167.779,47.025 169.376,53.107 172.948,59.748Z" style="fill:rgb(236,234,218);"/>
    <path d="M178.753,56.626C179.244,57.54 179.576,58.605 179.771,59.748L178.121,61.13L177.659,59.748L176.22,59.281L177.659,58.356L176.734,56.045L178.753,56.626Z" style="fill:rgb(254,208,181);fill-rule:nonzero;"/>
    <path d="M178.753,56.626C175.181,49.985 170.986,45.3 169.383,46.162C167.779,47.025 169.376,53.107 172.948,59.748C174.843,63.272 173.762,65.675 172.842,67.722C172.779,67.864 172.716,68.004 172.655,68.142M178.753,56.626C180.686,60.221 180.146,66.142 178.529,70.025M178.753,56.626L176.734,56.045L177.659,58.356L176.22,59.281L177.659,59.748L178.121,61.13L179.771,59.748M178.753,56.626C179.244,57.54 179.576,58.605 179.771,59.748M178.529,70.025C177.158,73.316 175.015,75.143 172.948,72.85C171.465,71.206 171.934,69.775 172.655,68.142M178.529,70.025L172.655,68.142M178.529,70.025C179.735,67.13 180.342,63.101 179.771,59.748" style="fill:none;fill-rule:nonzero;stroke:black;stroke-width:1px;"/>
    <path d="M151.793,68.957C150.84,66.836 149.721,64.346 151.684,60.695C155.386,53.814 157.039,47.511 155.378,46.618C153.717,45.724 149.37,50.579 145.669,57.46C143.666,61.185 144.226,67.321 145.901,71.344L151.988,69.393C151.925,69.249 151.859,69.104 151.793,68.957Z" style="fill:rgb(236,234,218);"/>
    <path d="M145.901,71.344C147.321,74.754 149.543,76.647 151.684,74.271C153.221,72.567 152.734,71.085 151.988,69.393L145.901,71.344Z" style="fill:rgb(254,208,181);fill-rule:nonzero;"/>
    <path d="M145.901,71.344C147.321,74.754 149.543,76.647 151.684,74.271C153.221,72.567 152.734,71.085 151.988,69.393M145.901,71.344C144.226,67.321 143.666,61.185 145.669,57.46C149.37,50.579 153.717,45.724 155.378,46.618C157.039,47.511 155.386,53.814 151.684,60.695C149.721,64.346 150.84,66.836 151.793,68.957C151.859,69.104 151.925,69.249 151.988,69.393M145.901,71.344L151.988,69.393" style="fill:none;fill-rule:nonzero;stroke:black;stroke-width:1px;"/>
    <g transform="matrix(-1,0,0,1,181.552,32.9016)">
        <circle cx="4.583" cy="4.583" r="4.083" style="fill:rgb(254,208,181);stroke:black;stroke-width:1px;"/>
    </g>
    <g transform="matrix(-1,0,0,1,152.017,32.9016)">
        <circle cx="4.583" cy="4.583" r="4.083" style="fill:rgb(254,208,181);stroke:black;stroke-width:1px;"/>
    </g>
    <g transform="matrix(-1,0,0,1,178.497,16.5879)">
        <circle cx="16.295" cy="16.295" r="15.795" style="fill:rgb(254,208,181);stroke:black;stroke-width:1px;"/>
    </g>
    <g transform="matrix(-1,0,0,1,167.258,34)">
        <ellipse cx="1.018" cy="3.055" rx="1.018" ry="3.055"/>
    </g>
    <g transform="matrix(-1,0,0,1,158.037,34)">
        <ellipse cx="1.018" cy="3.055" rx="1.018" ry="3.055"/>
    </g>
    <path d="M169.476,14.769C141.977,10.186 145.367,27.361 145,32.499C148.963,33.82 150.634,31.065 154.199,24.954C151.653,30.555 154.708,31.574 161.17,26.074C159.8,29.537 158.273,31.065 168.321,26.074C166.42,35.138 174.911,25.396 176.605,29.537C179.454,36.502 183.29,17.072 169.476,14.769Z" style="fill:rgb(32,10,0);fill-rule:nonzero;"/>
    <path d="M149.5,39C151.333,39.667 154.9,41.6 154.5,44" style="fill:none;fill-rule:nonzero;stroke:rgb(218,177,152);stroke-opacity:0.35;stroke-width:1px;stroke-linecap:round;"/>
    <path d="M175.031,39C173.198,39.667 169.631,41.6 170.031,44" style="fill:none;fill-rule:nonzero;stroke:rgb(218,177,152);stroke-opacity:0.35;stroke-width:1px;stroke-linecap:round;"/>
    <path d="M159,44C160.2,43.285 162.2,42.162 165,44" style="fill:none;fill-rule:nonzero;stroke:rgb(33,33,33);stroke-width:1px;stroke-linecap:round;"/>
    <ellipse cx="52.443" cy="93.568" rx="14.258" ry="3.055" style="fill:url(#_Radial1);"/>
    <path d="M62.45,65.912C63.526,63.519 64.789,60.709 62.573,56.59C58.397,48.825 56.531,41.714 58.405,40.706C60.279,39.697 65.184,45.175 69.36,52.939C71.621,57.142 70.989,64.066 69.099,68.606L62.231,66.404C62.302,66.242 62.376,66.078 62.45,65.912Z" style="fill:rgb(95,45,0);"/>
    <path d="M69.099,68.606C67.496,72.453 64.99,74.589 62.573,71.909C60.84,69.986 61.389,68.313 62.231,66.404L69.099,68.606Z" style="fill:rgb(254,208,181);fill-rule:nonzero;"/>
    <path d="M62.917,66.093L62.915,66.098L68.808,67.987C69.634,65.847 70.184,63.22 70.287,60.626C70.396,57.851 69.992,55.169 68.92,53.176C66.845,49.318 64.596,46.043 62.647,43.866C61.67,42.775 60.787,41.981 60.055,41.524C59.286,41.043 58.851,41.033 58.642,41.146C58.433,41.258 58.201,41.627 58.178,42.533C58.157,43.396 58.332,44.57 58.704,45.987C59.446,48.813 60.939,52.495 63.014,56.353C64.167,58.498 64.428,60.332 64.243,61.955C64.061,63.549 63.449,64.91 62.917,66.093ZM68.419,68.913L62.51,67.018C62.182,67.801 61.955,68.493 61.936,69.165C61.914,69.919 62.154,70.696 62.945,71.574C63.5,72.19 64.019,72.483 64.482,72.573C64.939,72.662 65.404,72.565 65.883,72.277C66.784,71.734 67.672,70.549 68.419,68.913Z" style="fill:none;fill-rule:nonzero;stroke:black;stroke-width:1px;"/>
    <circle cx="37.149" cy="29.155" r="4.454" style="fill:rgb(254,208,181);stroke:black;stroke-width:1px;"/>
    <g>
        <path d="M44.541,91.974C40.688,76.561 41.239,68.854 41.239,68.854L63.808,68.854C63.808,68.854 63.808,77.662 60.505,91.974C60.022,94.069 55.403,94.086 55,91.974C52.798,80.414 53.899,75.46 52.798,75.46C51.697,75.46 52.798,80.414 50.046,91.974C49.548,94.065 45.063,94.059 44.541,91.974Z" style="fill:rgb(20,44,66);fill-rule:nonzero;"/>
    </g>
    <path d="M44.541,91.974C40.688,76.561 41.239,68.854 41.239,68.854L63.808,68.854C63.808,68.854 63.808,77.662 60.505,91.974C60.022,94.069 55.403,94.086 55,91.974C52.798,80.414 53.899,75.46 52.798,75.46C51.697,75.46 52.798,80.414 50.046,91.974C49.548,94.065 45.063,94.059 44.541,91.974Z" style="fill:none;fill-rule:nonzero;stroke:black;stroke-width:1px;"/>
    <path d="M42.035,45.938C42.881,43.054 44.768,41.18 47.094,40.142L55.902,57.779L58.379,49.872L60.856,41.964C62.213,43.042 63.208,44.389 63.609,45.938C63.778,46.592 63.938,47.197 64.089,47.766C65.707,53.863 66.22,55.797 64.71,69.955L42.035,69.955C37.215,62.349 38.918,56.551 41.861,46.532L42.035,45.938Z" style="fill:rgb(95,45,0);"/>
    <path d="M57.612,40.142C55.379,39.279 52.813,38.931 50.397,39.239C51.315,40.648 53.15,43.687 53.15,44.568C53.15,45.449 52.049,47.864 51.498,48.961L55.902,57.779L58.379,49.872C57.553,49.021 55.843,46.77 55.605,44.568C55.368,42.366 56.844,40.7 57.612,40.142Z" style="fill:rgb(190,89,105);fill-rule:nonzero;"/>
    <path d="M60.856,41.964C59.922,41.222 58.815,40.607 57.612,40.142C56.844,40.7 55.368,42.366 55.605,44.568C55.843,46.77 57.553,49.021 58.379,49.872L60.856,41.964Z" style="fill:white;fill-rule:nonzero;"/>
    <path d="M50.397,39.239C49.245,39.386 48.126,39.682 47.094,40.142L51.498,48.961C52.049,47.864 53.15,45.449 53.15,44.568C53.15,43.687 51.315,40.648 50.397,39.239Z" style="fill:white;fill-rule:nonzero;"/>
    <path d="M42.035,45.938C42.881,43.054 44.768,41.18 47.094,40.142M42.035,45.938C41.976,46.138 41.918,46.336 41.861,46.532M42.035,45.938L41.861,46.532M47.094,40.142C48.126,39.682 49.245,39.386 50.397,39.239M47.094,40.142L51.498,48.961M60.856,41.964C62.213,43.042 63.208,44.389 63.609,45.938C63.778,46.592 63.938,47.197 64.089,47.766C65.707,53.863 66.22,55.797 64.71,69.955L42.035,69.955C37.215,62.349 38.918,56.551 41.861,46.532M60.856,41.964C59.922,41.222 58.815,40.607 57.612,40.142M60.856,41.964L58.379,49.872M50.397,39.239C52.813,38.931 55.379,39.279 57.612,40.142M50.397,39.239C51.315,40.648 53.15,43.687 53.15,44.568C53.15,45.449 52.049,47.864 51.498,48.961M57.612,40.142C56.844,40.7 55.368,42.366 55.605,44.568C55.843,46.77 57.553,49.021 58.379,49.872M51.498,48.961L55.902,57.779L58.379,49.872" style="fill:none;fill-rule:nonzero;stroke:black;stroke-width:1px;"/>
    <path d="M42.435,66.161C41.36,63.767 40.097,60.958 42.312,56.838C46.489,49.074 48.355,41.962 46.481,40.954C44.606,39.946 39.702,45.423 35.525,53.188C33.265,57.391 33.896,64.314 35.787,68.854L42.655,66.652C42.584,66.49 42.51,66.326 42.435,66.161Z" style="fill:rgb(95,45,0);"/>
    <path d="M35.787,68.854C37.389,72.701 39.896,74.837 42.312,72.157C44.046,70.234 43.497,68.561 42.655,66.652L35.787,68.854Z" style="fill:rgb(254,208,181);fill-rule:nonzero;"/>
    <path d="M41.969,66.342L41.971,66.347L36.078,68.236C35.252,66.096 34.702,63.469 34.599,60.875C34.489,58.099 34.894,55.418 35.966,53.425C38.041,49.567 40.289,46.291 42.239,44.115C43.216,43.023 44.099,42.23 44.83,41.772C45.6,41.291 46.035,41.282 46.244,41.394C46.453,41.507 46.685,41.875 46.707,42.782C46.729,43.644 46.554,44.819 46.182,46.236C45.44,49.062 43.947,52.743 41.872,56.601C40.719,58.746 40.457,60.58 40.643,62.203C40.825,63.797 41.437,65.158 41.969,66.342ZM36.467,69.161L42.376,67.267C42.704,68.049 42.93,68.741 42.95,69.414C42.971,70.168 42.732,70.945 41.941,71.822C41.386,72.438 40.866,72.732 40.403,72.822C39.947,72.91 39.482,72.814 39.002,72.525C38.102,71.983 37.213,70.797 36.467,69.161Z" style="fill:none;fill-rule:nonzero;stroke:black;stroke-width:1px;"/>
    <path d="M69.542,24.866C69.542,25.396 69.545,25.917 69.549,26.43C69.56,28.244 69.571,29.95 69.435,31.537C69.261,33.565 68.851,35.333 67.934,36.797C66.126,39.686 62.19,41.614 53.333,41.614C46.962,41.614 43.5,39.895 41.335,37.029C39.133,34.114 38.205,29.945 37.124,24.814C37.151,15.573 44.413,8.118 53.333,8.118C62.27,8.118 69.542,15.601 69.542,24.866Z" style="fill:rgb(254,208,181);fill-rule:nonzero;stroke:black;stroke-width:1px;"/>
    <path d="M57,24C58,23.285 59.667,22.162 62,24" style="fill:none;fill-rule:nonzero;stroke:rgb(252,255,255);stroke-width:1px;stroke-linecap:round;"/>
    <path d="M45,25.85C46.26,26.193 48.339,26.7 50.197,24.165" style="fill:none;fill-rule:nonzero;stroke:rgb(252,255,255);stroke-width:1px;stroke-linecap:round;"/>
    <ellipse cx="48.5" cy="29" rx="1.5" ry="2"/>
    <ellipse cx="59.5" cy="29" rx="1.5" ry="2"/>
    <path d="M60.333,7.706C32.305,3.522 35.367,19.083 35,24.22C38.963,25.541 42.546,23.142 41.468,18.83C42.194,19.475 49.014,22.171 51.17,17.796C57.336,17.146 64.62,17.572 67.34,24.22C70.189,31.185 74.185,9.774 60.333,7.706Z" style="fill:rgb(252,255,255);fill-rule:nonzero;"/>
    <path d="M16.583,57L90.068,57L106,63L0,63L16.583,57Z" style="fill:rgb(166,99,74);fill-rule:nonzero;"/>
    <rect x="0" y="63" width="106" height="34" style="fill:rgb(136,80,59);"/>
    <rect x="74" y="55" width="17" height="6" style="fill:rgb(53,134,40);"/>
    <rect x="79.368" y="55" width="6.263" height="6" style="fill:rgb(252,255,255);"/>
    <g transform="matrix(-1,0,0,1,85.6316,55)">
        <rect x="0" y="0" width="0.895" height="6" style="fill:rgb(195,140,0);"/>
    </g>
    <g transform="matrix(-1,0,0,1,80.2632,55)">
        <rect x="0" y="0" width="0.895" height="6" style="fill:rgb(195,140,0);"/>
    </g>
    <path d="M83.624,58.608C83.624,58.728 83.569,58.857 83.46,58.996C83.353,59.135 83.217,59.257 83.052,59.364C82.889,59.471 82.732,59.539 82.58,59.568L82.58,60.3L82.232,60.3L82.232,59.576C82.045,59.563 81.851,59.539 81.648,59.504C81.448,59.469 81.3,59.433 81.204,59.396L81.204,58.52L81.58,58.52C81.697,58.736 81.833,58.904 81.988,59.024C82.143,59.144 82.299,59.204 82.456,59.204C82.579,59.204 82.677,59.169 82.752,59.1C82.827,59.028 82.864,58.941 82.864,58.84C82.864,58.76 82.832,58.684 82.768,58.612C82.707,58.54 82.628,58.473 82.532,58.412C82.436,58.351 82.308,58.276 82.148,58.188C81.951,58.079 81.789,57.983 81.664,57.9C81.541,57.817 81.437,57.721 81.352,57.612C81.267,57.503 81.224,57.383 81.224,57.252C81.224,57.129 81.276,56.997 81.38,56.856C81.484,56.715 81.615,56.591 81.772,56.484C81.932,56.377 82.085,56.311 82.232,56.284L82.232,55.552L82.58,55.552L82.58,56.284C82.753,56.297 82.928,56.321 83.104,56.356C83.283,56.391 83.415,56.427 83.5,56.464L83.5,57.34L83.124,57.34C83.012,57.124 82.888,56.956 82.752,56.836C82.619,56.716 82.477,56.656 82.328,56.656C82.221,56.656 82.137,56.691 82.076,56.76C82.015,56.827 81.984,56.912 81.984,57.016C81.984,57.101 82.016,57.183 82.08,57.26C82.147,57.335 82.228,57.404 82.324,57.468C82.423,57.529 82.555,57.605 82.72,57.696C82.915,57.803 83.072,57.896 83.192,57.976C83.312,58.056 83.413,58.149 83.496,58.256C83.579,58.363 83.62,58.48 83.62,58.608L83.624,58.608Z" style="fill:rgb(195,140,0);fill-rule:nonzero;"/>
    <path d="M56.7,34.148C55,33 54,33 52.3,34.148C50.073,35.652 50,35.5 49.5,35.371C52.5,38 53.5,36 54.5,35.371C55.338,36.033 56.5,38 59.5,35.371C59,35.371 59.026,35.719 56.7,34.148Z" style="fill:rgb(252,255,255);fill-rule:nonzero;"/>
    <rect x="56" y="55" width="17" height="6" style="fill:rgb(53,134,40);"/>
    <rect x="61.368" y="55" width="6.263" height="6" style="fill:rgb(252,255,255);"/>
    <g transform="matrix(-1,0,0,1,67.6316,55)">
        <rect x="0" y="0" width="0.895" height="6" style="fill:rgb(195,140,0);"/>
    </g>
    <g transform="matrix(-1,0,0,1,62.2632,55)">
        <rect x="0" y="0" width="0.895" height="6" style="fill:rgb(195,140,0);"/>
    </g>
    <path d="M65.624,58.608C65.624,58.728 65.569,58.857 65.46,58.996C65.353,59.135 65.217,59.257 65.052,59.364C64.889,59.471 64.732,59.539 64.58,59.568L64.58,60.3L64.232,60.3L64.232,59.576C64.045,59.563 63.851,59.539 63.648,59.504C63.448,59.469 63.3,59.433 63.204,59.396L63.204,58.52L63.58,58.52C63.697,58.736 63.833,58.904 63.988,59.024C64.143,59.144 64.299,59.204 64.456,59.204C64.579,59.204 64.677,59.169 64.752,59.1C64.827,59.028 64.864,58.941 64.864,58.84C64.864,58.76 64.832,58.684 64.768,58.612C64.707,58.54 64.628,58.473 64.532,58.412C64.436,58.351 64.308,58.276 64.148,58.188C63.951,58.079 63.789,57.983 63.664,57.9C63.541,57.817 63.437,57.721 63.352,57.612C63.267,57.503 63.224,57.383 63.224,57.252C63.224,57.129 63.276,56.997 63.38,56.856C63.484,56.715 63.615,56.591 63.772,56.484C63.932,56.377 64.085,56.311 64.232,56.284L64.232,55.552L64.58,55.552L64.58,56.284C64.753,56.297 64.928,56.321 65.104,56.356C65.283,56.391 65.415,56.427 65.5,56.464L65.5,57.34L65.124,57.34C65.012,57.124 64.888,56.956 64.752,56.836C64.619,56.716 64.477,56.656 64.328,56.656C64.221,56.656 64.137,56.691 64.076,56.76C64.015,56.827 63.984,56.912 63.984,57.016C63.984,57.101 64.016,57.183 64.08,57.26C64.147,57.335 64.228,57.404 64.324,57.468C64.423,57.529 64.555,57.605 64.72,57.696C64.915,57.803 65.072,57.896 65.192,57.976C65.312,58.056 65.413,58.149 65.496,58.256C65.579,58.363 65.62,58.48 65.62,58.608L65.624,58.608Z" style="fill:rgb(195,140,0);fill-rule:nonzero;"/>
    <rect x="65" y="49" width="17" height="6" style="fill:rgb(53,134,40);"/>
    <rect x="70.368" y="49" width="6.263" height="6" style="fill:rgb(252,255,255);"/>
    <g transform="matrix(-1,0,0,1,76.6316,49)">
        <rect x="0" y="0" width="0.895" height="6" style="fill:rgb(195,140,0);"/>
    </g>
    <g transform="matrix(-1,0,0,1,71.2632,49)">
        <rect x="0" y="0" width="0.895" height="6" style="fill:rgb(195,140,0);"/>
    </g>
    <path d="M74.624,52.608C74.624,52.728 74.569,52.857 74.46,52.996C74.353,53.135 74.217,53.257 74.052,53.364C73.889,53.471 73.732,53.539 73.58,53.568L73.58,54.3L73.232,54.3L73.232,53.576C73.045,53.563 72.851,53.539 72.648,53.504C72.448,53.469 72.3,53.433 72.204,53.396L72.204,52.52L72.58,52.52C72.697,52.736 72.833,52.904 72.988,53.024C73.143,53.144 73.299,53.204 73.456,53.204C73.579,53.204 73.677,53.169 73.752,53.1C73.827,53.028 73.864,52.941 73.864,52.84C73.864,52.76 73.832,52.684 73.768,52.612C73.707,52.54 73.628,52.473 73.532,52.412C73.436,52.351 73.308,52.276 73.148,52.188C72.951,52.079 72.789,51.983 72.664,51.9C72.541,51.817 72.437,51.721 72.352,51.612C72.267,51.503 72.224,51.383 72.224,51.252C72.224,51.129 72.276,50.997 72.38,50.856C72.484,50.715 72.615,50.591 72.772,50.484C72.932,50.377 73.085,50.311 73.232,50.284L73.232,49.552L73.58,49.552L73.58,50.284C73.753,50.297 73.928,50.321 74.104,50.356C74.283,50.391 74.415,50.427 74.5,50.464L74.5,51.34L74.124,51.34C74.012,51.124 73.888,50.956 73.752,50.836C73.619,50.716 73.477,50.656 73.328,50.656C73.221,50.656 73.137,50.691 73.076,50.76C73.015,50.827 72.984,50.912 72.984,51.016C72.984,51.101 73.016,51.183 73.08,51.26C73.147,51.335 73.228,51.404 73.324,51.468C73.423,51.529 73.555,51.605 73.72,51.696C73.915,51.803 74.072,51.896 74.192,51.976C74.312,52.056 74.413,52.149 74.496,52.256C74.579,52.363 74.62,52.48 74.62,52.608L74.624,52.608Z" style="fill:rgb(195,140,0);fill-rule:nonzero;"/>
    <rect x="10" y="55" width="17" height="6" style="fill:rgb(53,134,40);"/>
    <rect x="15.368" y="55" width="6.263" height="6" style="fill:rgb(252,255,255);"/>
    <g transform="matrix(-1,0,0,1,21.6316,55)">
        <rect x="0" y="0" width="0.895" height="6" style="fill:rgb(195,140,0);"/>
    </g>
    <g transform="matrix(-1,0,0,1,16.2632,55)">
        <rect x="0" y="0" width="0.895" height="6" style="fill:rgb(195,140,0);"/>
    </g>
    <path d="M19.624,58.608C19.624,58.728 19.569,58.857 19.46,58.996C19.353,59.135 19.217,59.257 19.052,59.364C18.889,59.471 18.732,59.539 18.58,59.568L18.58,60.3L18.232,60.3L18.232,59.576C18.045,59.563 17.851,59.539 17.648,59.504C17.448,59.469 17.3,59.433 17.204,59.396L17.204,58.52L17.58,58.52C17.697,58.736 17.833,58.904 17.988,59.024C18.143,59.144 18.299,59.204 18.456,59.204C18.579,59.204 18.677,59.169 18.752,59.1C18.827,59.028 18.864,58.941 18.864,58.84C18.864,58.76 18.832,58.684 18.768,58.612C18.707,58.54 18.628,58.473 18.532,58.412C18.436,58.351 18.308,58.276 18.148,58.188C17.951,58.079 17.789,57.983 17.664,57.9C17.541,57.817 17.437,57.721 17.352,57.612C17.267,57.503 17.224,57.383 17.224,57.252C17.224,57.129 17.276,56.997 17.38,56.856C17.484,56.715 17.615,56.591 17.772,56.484C17.932,56.377 18.085,56.311 18.232,56.284L18.232,55.552L18.58,55.552L18.58,56.284C18.753,56.297 18.928,56.321 19.104,56.356C19.283,56.391 19.415,56.427 19.5,56.464L19.5,57.34L19.124,57.34C19.012,57.124 18.888,56.956 18.752,56.836C18.619,56.716 18.477,56.656 18.328,56.656C18.221,56.656 18.137,56.691 18.076,56.76C18.015,56.827 17.984,56.912 17.984,57.016C17.984,57.101 18.016,57.183 18.08,57.26C18.147,57.335 18.228,57.404 18.324,57.468C18.423,57.529 18.555,57.605 18.72,57.696C18.915,57.803 19.072,57.896 19.192,57.976C19.312,58.056 19.413,58.149 19.496,58.256C19.579,58.363 19.62,58.48 19.62,58.608L19.624,58.608Z" style="fill:rgb(195,140,0);fill-rule:nonzero;"/>
    <rect x="28" y="55" width="17" height="6" style="fill:rgb(53,134,40);"/>
    <rect x="33.368" y="55" width="6.263" height="6" style="fill:rgb(252,255,255);"/>
    <g transform="matrix(-1,0,0,1,39.6316,55)">
        <rect x="0" y="0" width="0.895" height="6" style="fill:rgb(195,140,0);"/>
    </g>
    <g transform="matrix(-1,0,0,1,34.2632,55)">
        <rect x="0" y="0" width="0.895" height="6" style="fill:rgb(195,140,0);"/>
    </g>
    <path d="M37.624,58.608C37.624,58.728 37.569,58.857 37.46,58.996C37.353,59.135 37.217,59.257 37.052,59.364C36.889,59.471 36.732,59.539 36.58,59.568L36.58,60.3L36.232,60.3L36.232,59.576C36.045,59.563 35.851,59.539 35.648,59.504C35.448,59.469 35.3,59.433 35.204,59.396L35.204,58.52L35.58,58.52C35.697,58.736 35.833,58.904 35.988,59.024C36.143,59.144 36.299,59.204 36.456,59.204C36.579,59.204 36.677,59.169 36.752,59.1C36.827,59.028 36.864,58.941 36.864,58.84C36.864,58.76 36.832,58.684 36.768,58.612C36.707,58.54 36.628,58.473 36.532,58.412C36.436,58.351 36.308,58.276 36.148,58.188C35.951,58.079 35.789,57.983 35.664,57.9C35.541,57.817 35.437,57.721 35.352,57.612C35.267,57.503 35.224,57.383 35.224,57.252C35.224,57.129 35.276,56.997 35.38,56.856C35.484,56.715 35.615,56.591 35.772,56.484C35.932,56.377 36.085,56.311 36.232,56.284L36.232,55.552L36.58,55.552L36.58,56.284C36.753,56.297 36.928,56.321 37.104,56.356C37.283,56.391 37.415,56.427 37.5,56.464L37.5,57.34L37.124,57.34C37.012,57.124 36.888,56.956 36.752,56.836C36.619,56.716 36.477,56.656 36.328,56.656C36.221,56.656 36.137,56.691 36.076,56.76C36.015,56.827 35.984,56.912 35.984,57.016C35.984,57.101 36.016,57.183 36.08,57.26C36.147,57.335 36.228,57.404 36.324,57.468C36.423,57.529 36.555,57.605 36.72,57.696C36.915,57.803 37.072,57.896 37.192,57.976C37.312,58.056 37.413,58.149 37.496,58.256C37.579,58.363 37.62,58.48 37.62,58.608L37.624,58.608Z" style="fill:rgb(195,140,0);fill-rule:nonzero;"/>
    <rect x="19" y="49" width="17" height="6" style="fill:rgb(53,134,40);"/>
    <rect x="24.368" y="49" width="6.263" height="6" style="fill:rgb(252,255,255);"/>
    <g transform="matrix(-1,0,0,1,30.6316,49)">
        <rect x="0" y="0" width="0.895" height="6" style="fill:rgb(195,140,0);"/>
    </g>
    <g transform="matrix(-1,0,0,1,25.2632,49)">
        <rect x="0" y="0" width="0.895" height="6" style="fill:rgb(195,140,0);"/>
    </g>
    <path d="M28.624,52.608C28.624,52.728 28.569,52.857 28.46,52.996C28.353,53.135 28.217,53.257 28.052,53.364C27.889,53.471 27.732,53.539 27.58,53.568L27.58,54.3L27.232,54.3L27.232,53.576C27.045,53.563 26.851,53.539 26.648,53.504C26.448,53.469 26.3,53.433 26.204,53.396L26.204,52.52L26.58,52.52C26.697,52.736 26.833,52.904 26.988,53.024C27.143,53.144 27.299,53.204 27.456,53.204C27.579,53.204 27.677,53.169 27.752,53.1C27.827,53.028 27.864,52.941 27.864,52.84C27.864,52.76 27.832,52.684 27.768,52.612C27.707,52.54 27.628,52.473 27.532,52.412C27.436,52.351 27.308,52.276 27.148,52.188C26.951,52.079 26.789,51.983 26.664,51.9C26.541,51.817 26.437,51.721 26.352,51.612C26.267,51.503 26.224,51.383 26.224,51.252C26.224,51.129 26.276,50.997 26.38,50.856C26.484,50.715 26.615,50.591 26.772,50.484C26.932,50.377 27.085,50.311 27.232,50.284L27.232,49.552L27.58,49.552L27.58,50.284C27.753,50.297 27.928,50.321 28.104,50.356C28.283,50.391 28.415,50.427 28.5,50.464L28.5,51.34L28.124,51.34C28.012,51.124 27.888,50.956 27.752,50.836C27.619,50.716 27.477,50.656 27.328,50.656C27.221,50.656 27.137,50.691 27.076,50.76C27.015,50.827 26.984,50.912 26.984,51.016C26.984,51.101 27.016,51.183 27.08,51.26C27.147,51.335 27.228,51.404 27.324,51.468C27.423,51.529 27.555,51.605 27.72,51.696C27.915,51.803 28.072,51.896 28.192,51.976C28.312,52.056 28.413,52.149 28.496,52.256C28.579,52.363 28.62,52.48 28.62,52.608L28.624,52.608Z" style="fill:rgb(195,140,0);fill-rule:nonzero;"/>
    <path d="M80.561,18.461C79.78,21.723 77.168,24.63 77.136,24.662C76.999,24.811 76.961,25.031 77.043,25.225C77.124,25.419 77.299,25.536 77.499,25.536C81.643,25.536 84.749,23.477 86.286,22.209L80.561,18.461Z" style="fill:white;fill-rule:nonzero;"/>
    <path d="M78.999,9C78.999,4.029 83.028,0 87.999,0L147.999,0C152.969,0 156.999,4.029 156.999,9L156.999,14C156.999,18.971 152.969,23 147.999,23L87.999,23C83.028,23 78.999,18.971 78.999,14L78.999,9Z" style="fill:white;fill-rule:nonzero;"/>
    <path d="M85.368,14L85.368,10.592L84.024,10.592L84.024,9.8L87.684,9.8L87.684,10.592L86.34,10.592L86.34,14L85.368,14ZM91.087,9.8L92.059,9.8L92.059,14L91.087,14L91.087,9.8ZM89.179,14L88.207,14L88.207,9.8L89.179,9.8L89.179,14ZM91.159,12.278L89.107,12.278L89.107,11.456L91.159,11.456L91.159,12.278ZM93.947,11.492L95.969,11.492L95.969,12.248L93.947,12.248L93.947,11.492ZM94.019,13.22L96.305,13.22L96.305,14L93.053,14L93.053,9.8L96.227,9.8L96.227,10.58L94.019,10.58L94.019,13.22ZM98.081,14L98.081,12.284L98.303,12.872L96.455,9.8L97.487,9.8L98.903,12.158L98.309,12.158L99.731,9.8L100.685,9.8L98.837,12.872L99.053,12.284L99.053,14L98.081,14ZM102.239,14L104.111,9.8L105.071,9.8L106.949,14L105.929,14L104.393,10.292L104.777,10.292L103.235,14L102.239,14ZM103.175,13.1L103.433,12.362L105.593,12.362L105.857,13.1L103.175,13.1ZM107.385,14L107.385,9.8L109.203,9.8C109.579,9.8 109.903,9.862 110.175,9.986C110.447,10.106 110.657,10.28 110.805,10.508C110.953,10.736 111.027,11.008 111.027,11.324C111.027,11.636 110.953,11.906 110.805,12.134C110.657,12.358 110.447,12.53 110.175,12.65C109.903,12.77 109.579,12.83 109.203,12.83L107.925,12.83L108.357,12.404L108.357,14L107.385,14ZM110.055,14L109.005,12.476L110.043,12.476L111.105,14L110.055,14ZM108.357,12.512L107.925,12.056L109.149,12.056C109.449,12.056 109.673,11.992 109.821,11.864C109.969,11.732 110.043,11.552 110.043,11.324C110.043,11.092 109.969,10.912 109.821,10.784C109.673,10.656 109.449,10.592 109.149,10.592L107.925,10.592L108.357,10.13L108.357,12.512ZM112.691,11.492L114.713,11.492L114.713,12.248L112.691,12.248L112.691,11.492ZM112.763,13.22L115.049,13.22L115.049,14L111.797,14L111.797,9.8L114.971,9.8L114.971,10.58L112.763,10.58L112.763,13.22ZM118.295,14.072C118.011,14.072 117.749,14.02 117.509,13.916C117.273,13.808 117.079,13.656 116.927,13.46L117.467,12.812C117.583,12.964 117.705,13.08 117.833,13.16C117.961,13.236 118.099,13.274 118.247,13.274C118.643,13.274 118.841,13.042 118.841,12.578L118.841,10.58L117.365,10.58L117.365,9.8L119.807,9.8L119.807,12.524C119.807,13.044 119.679,13.432 119.423,13.688C119.167,13.944 118.791,14.072 118.295,14.072ZM122.634,14.072C122.038,14.072 121.572,13.906 121.236,13.574C120.9,13.242 120.732,12.768 120.732,12.152L120.732,9.8L121.704,9.8L121.704,12.116C121.704,12.516 121.786,12.804 121.95,12.98C122.114,13.156 122.344,13.244 122.64,13.244C122.936,13.244 123.166,13.156 123.33,12.98C123.494,12.804 123.576,12.516 123.576,12.116L123.576,9.8L124.536,9.8L124.536,12.152C124.536,12.768 124.368,13.242 124.032,13.574C123.696,13.906 123.23,14.072 122.634,14.072ZM126.876,14.072C126.54,14.072 126.218,14.028 125.91,13.94C125.602,13.848 125.354,13.73 125.166,13.586L125.496,12.854C125.676,12.982 125.888,13.088 126.132,13.172C126.38,13.252 126.63,13.292 126.882,13.292C127.074,13.292 127.228,13.274 127.344,13.238C127.464,13.198 127.552,13.144 127.608,13.076C127.664,13.008 127.692,12.93 127.692,12.842C127.692,12.73 127.648,12.642 127.56,12.578C127.472,12.51 127.356,12.456 127.212,12.416C127.068,12.372 126.908,12.332 126.732,12.296C126.56,12.256 126.386,12.208 126.21,12.152C126.038,12.096 125.88,12.024 125.736,11.936C125.592,11.848 125.474,11.732 125.382,11.588C125.294,11.444 125.25,11.26 125.25,11.036C125.25,10.796 125.314,10.578 125.442,10.382C125.574,10.182 125.77,10.024 126.03,9.908C126.294,9.788 126.624,9.728 127.02,9.728C127.284,9.728 127.544,9.76 127.8,9.824C128.056,9.884 128.282,9.976 128.478,10.1L128.178,10.838C127.982,10.726 127.786,10.644 127.59,10.592C127.394,10.536 127.202,10.508 127.014,10.508C126.826,10.508 126.672,10.53 126.552,10.574C126.432,10.618 126.346,10.676 126.294,10.748C126.242,10.816 126.216,10.896 126.216,10.988C126.216,11.096 126.26,11.184 126.348,11.252C126.436,11.316 126.552,11.368 126.696,11.408C126.84,11.448 126.998,11.488 127.17,11.528C127.346,11.568 127.52,11.614 127.692,11.666C127.868,11.718 128.028,11.788 128.172,11.876C128.316,11.964 128.432,12.08 128.52,12.224C128.612,12.368 128.658,12.55 128.658,12.77C128.658,13.006 128.592,13.222 128.46,13.418C128.328,13.614 128.13,13.772 127.866,13.892C127.606,14.012 127.276,14.072 126.876,14.072ZM130.134,14L130.134,10.592L128.79,10.592L128.79,9.8L132.45,9.8L132.45,10.592L131.106,10.592L131.106,14L130.134,14ZM134.672,14L134.672,9.8L135.644,9.8L135.644,13.208L137.75,13.208L137.75,14L134.672,14ZM137.764,14L139.636,9.8L140.596,9.8L142.474,14L141.454,14L139.918,10.292L140.302,10.292L138.76,14L137.764,14ZM138.7,13.1L138.958,12.362L141.118,12.362L141.382,13.1L138.7,13.1ZM142.64,14L142.64,13.37L145.238,10.238L145.358,10.592L142.688,10.592L142.688,9.8L146.222,9.8L146.222,10.43L143.63,13.562L143.51,13.208L146.312,13.208L146.312,14L142.64,14ZM147.979,14L147.979,12.284L148.201,12.872L146.353,9.8L147.386,9.8L148.802,12.158L148.208,12.158L149.63,9.8L150.584,9.8L148.736,12.872L148.952,12.284L148.952,14L147.979,14ZM151.107,12.542L150.921,9.8L152.037,9.8L151.851,12.542L151.107,12.542ZM151.479,14.048C151.311,14.048 151.173,13.994 151.065,13.886C150.957,13.778 150.903,13.65 150.903,13.502C150.903,13.35 150.957,13.224 151.065,13.124C151.173,13.02 151.311,12.968 151.479,12.968C151.651,12.968 151.789,13.02 151.893,13.124C152.001,13.224 152.055,13.35 152.055,13.502C152.055,13.65 152.001,13.778 151.893,13.886C151.789,13.994 151.651,14.048 151.479,14.048Z" style="fill-rule:nonzero;"/>
    <defs>
        <radialGradient id="_Radial1" cx="0" cy="0" r="1" gradientUnits="userSpaceOnUse" gradientTransform="matrix(14.2583,0,0,3.05535,52.4428,93.5683)"><stop offset="0" style="stop-color:black;stop-opacity:0.25"/><stop offset="0.65" style="stop-color:black;stop-opacity:0.25"/><stop offset="1" style="stop-color:black;stop-opacity:0"/></radialGradient>
    </defs>
</svg>
