<svg width="186" height="99" viewBox="0 0 186 99" fill="none" xmlns="http://www.w3.org/2000/svg">
<path d="M151.799 51.299C154.618 41.6911 171.581 44.203 173.418 51.299C175.254 58.3951 176.952 61.7982 173.418 73.5166H151.799C147.253 66.3422 148.98 60.9069 151.799 51.299Z" fill="#FED0B5"/>
<ellipse cx="14.2583" cy="3.05535" rx="14.2583" ry="3.05535" transform="matrix(-1 0 0 1 175.619 92.4391)" fill="url(#paint0_radial_19_1945)" fill-opacity="0.25"/>
<g filter="url(#filter0_i_19_1945)">
<path fill-rule="evenodd" clip-rule="evenodd" d="M171.878 72C171.878 72 172.387 79.1292 168.823 93.3875C168.341 95.3167 164.191 95.322 163.731 93.3875C162.281 87.2987 161.987 83.191 161.814 80.7823C161.684 78.9606 161.623 78.1107 161.184 78.1107C160.726 78.1107 160.68 79.0409 160.583 81.0411C160.522 82.2857 160.441 83.9447 160.227 86.0517C160.023 88.0742 159.696 90.5096 159.148 93.3875C158.775 95.341 154.502 95.3252 154.055 93.3875C151 80.1476 151 72 151 72H171.878ZM160.227 86.0517L157.999 87.3604L156.499 89.3604L155.999 86.8604L154.055 85.3604L155.499 84.8604L154.999 81.3604L156.499 83.3604L158.499 82.3604V85.3604L160.227 86.0517Z" fill="#235371"/>
<path d="M154.999 81.3604L156.499 83.3604L158.499 82.3604V85.3604L160.227 86.0517L157.999 87.3604L156.499 89.3604L155.999 86.8604L154.055 85.3604L155.499 84.8604L154.999 81.3604Z" fill="#FED0B5"/>
</g>
<path d="M160.227 86.0517C160.023 88.0742 159.696 90.5096 159.148 93.3875C158.775 95.341 154.502 95.3252 154.055 93.3875C151 80.1476 151 72 151 72H171.878C171.878 72 172.387 79.1292 168.823 93.3875C168.341 95.3167 164.191 95.322 163.731 93.3875C162.281 87.2987 161.987 83.191 161.814 80.7823C161.684 78.9606 161.623 78.1107 161.184 78.1107C160.726 78.1107 160.68 79.0409 160.583 81.0411C160.522 82.2857 160.441 83.9447 160.227 86.0517ZM160.227 86.0517L158.499 85.3604V82.3604L156.499 83.3604L154.999 81.3604L155.499 84.8604L154.055 85.3604L155.999 86.8604L156.499 89.3604L157.999 87.3604L160.227 86.0517Z" stroke="black"/>
<path d="M172.343 51.1125L172.343 51.1124L172.181 50.5628L172.181 50.5627C170.87 46.0928 166.242 44.3492 161.515 44.6569C159.171 44.8096 156.866 45.4701 155.047 46.5111C153.222 47.5556 151.94 48.9499 151.526 50.5472C151.336 51.284 151.146 51.981 150.965 52.6485L150.965 52.6494C150.178 55.5506 149.543 57.8982 149.484 60.8212C149.436 63.262 149.79 66.1247 150.826 70.0458L150.879 70.0275L151.391 69.85L150.758 69.411L151.231 68.5369L153.381 69.4118L154.146 68.6464L155 67.7929V69V70.1114L157.338 70.7067L158.284 70.9476L157.536 71.5745L156.861 72.1396H167V69.5V67.7845L167.922 69.2314L169.774 72.1396H172.384C173.095 70.9886 173.637 69.8881 174.036 68.8115L174.036 68.8115L174.04 68.8017L174.045 68.7866C174.336 68.0023 175.476 64.9302 174.016 57.1057C173.568 55.284 172.989 53.3152 172.343 51.1125ZM151.938 72.1396L151.19 71.3698C151.262 71.6222 151.337 71.8787 151.415 72.1396H151.938Z" fill="#ECEADA" stroke="black"/>
<path d="M178.441 71.6211C176.958 75.18 174.64 77.1559 172.404 74.6765C170.801 72.8979 171.308 71.35 172.087 69.5842L178.441 71.6211Z" fill="#FED0B5"/>
<path fill-rule="evenodd" clip-rule="evenodd" d="M172.404 60.5056C174.454 64.3163 173.286 66.9154 172.291 69.1296C172.222 69.2829 172.154 69.4343 172.087 69.5842L178.441 71.6211C179.745 68.4893 180.402 64.1316 179.784 60.5056L178 62L177.5 60.5056L175.943 60L177.5 59L176.5 56.5L178.683 57.1286C174.82 49.9458 170.282 44.8789 168.549 45.8114C166.815 46.744 168.541 53.3228 172.404 60.5056Z" fill="#ECEADA"/>
<path d="M178.683 57.1286C179.215 58.1174 179.574 59.269 179.784 60.5056L178 62L177.5 60.5056L175.943 60L177.5 59L176.5 56.5L178.683 57.1286Z" fill="#FED0B5"/>
<path d="M179.502 64.2382C179.54 63.2933 179.513 62.3608 179.414 61.4679L178.321 62.3833L177.759 62.8544L177.526 62.1586L177.106 60.9033L175.789 60.4755L174.786 60.1496L175.673 59.5793L176.882 58.8025L176.036 56.6857L175.656 55.7367L176.638 56.0195L177.664 56.315C175.912 53.2047 174.066 50.5706 172.445 48.7603C171.542 47.7519 170.727 47.0206 170.055 46.6002C169.345 46.1563 168.959 46.1582 168.785 46.2518C168.611 46.3454 168.397 46.6661 168.376 47.5033C168.356 48.296 168.518 49.3784 168.861 50.6878C169.546 53.2986 170.926 56.7016 172.845 60.2688C173.915 62.259 174.159 63.9634 173.986 65.473C173.819 66.9389 173.26 68.1918 172.772 69.2785L178.15 71.0027C178.905 69.0332 179.408 66.6204 179.502 64.2382ZM177.761 71.9281L172.367 70.199C172.071 70.9086 171.87 71.5333 171.852 72.1399C171.832 72.8266 172.05 73.5363 172.776 74.3416C173.286 74.9072 173.759 75.1735 174.178 75.2547C174.589 75.3346 175.01 75.2482 175.447 74.9848C176.264 74.493 177.075 73.4184 177.761 71.9281ZM179.241 60.3087C179.048 59.3018 178.751 58.3671 178.339 57.5498L177.344 57.2633L177.964 58.8143L178.118 59.1975L177.77 59.4207L177.101 59.8504L177.654 60.0301L177.894 60.1079L177.974 60.347L178.241 61.1456L179.241 60.3087Z" stroke="black"/>
<path fill-rule="evenodd" clip-rule="evenodd" d="M152.354 69.1296C151.359 66.9154 150.19 64.3163 152.24 60.5056C156.103 53.3228 157.83 46.744 156.096 45.8114C154.362 44.8789 149.825 49.9458 145.961 57.1286C143.87 61.0167 144.455 67.4212 146.204 71.6211L152.557 69.5842C152.491 69.4343 152.423 69.2829 152.354 69.1296Z" fill="#ECEADA"/>
<path d="M146.204 71.6211C147.686 75.18 150.004 77.1559 152.24 74.6765C153.844 72.8979 153.336 71.35 152.557 69.5842L146.204 71.6211Z" fill="#FED0B5"/>
<path d="M151.873 69.2785L146.495 71.0027C145.739 69.0332 145.236 66.6204 145.142 64.2382C145.041 61.6745 145.414 59.2013 146.402 57.3655C148.32 53.7983 150.399 50.7711 152.2 48.7603C153.103 47.7519 153.917 47.0206 154.589 46.6002C155.299 46.1563 155.685 46.1582 155.859 46.2518C156.033 46.3454 156.247 46.6661 156.268 47.5033C156.288 48.296 156.127 49.3784 155.783 50.6878C155.098 53.2986 153.718 56.7016 151.8 60.2688C150.729 62.259 150.486 63.9634 150.658 65.473C150.826 66.9389 151.384 68.1919 151.873 69.2785ZM146.884 71.9281L152.277 70.199C152.573 70.9086 152.775 71.5333 152.792 72.1399C152.812 72.8266 152.595 73.5363 151.869 74.3416C151.359 74.9072 150.885 75.1735 150.467 75.2547C150.056 75.3346 149.635 75.2482 149.197 74.9848C148.381 74.4931 147.57 73.4184 146.884 71.9281Z" stroke="black"/>
<circle cx="4.58303" cy="4.58303" r="4.08303" transform="matrix(-1 0 0 1 181.552 32.9016)" fill="#FED0B5" stroke="black"/>
<circle cx="4.58303" cy="4.58303" r="4.08303" transform="matrix(-1 0 0 1 152.017 32.9016)" fill="#FED0B5" stroke="black"/>
<circle cx="16.2952" cy="16.2952" r="15.7952" transform="matrix(-1 0 0 1 178.497 16.5879)" fill="#FED0B5" stroke="black"/>
<ellipse cx="1.01845" cy="3.05535" rx="1.01845" ry="3.05535" transform="matrix(-1 0 0 1 167.258 34)" fill="black"/>
<ellipse cx="1.01845" cy="3.05535" rx="1.01845" ry="3.05535" transform="matrix(-1 0 0 1 158.037 34)" fill="black"/>
<path d="M169.476 14.7693C141.977 10.1863 145.367 27.361 145 32.4988C148.963 33.8199 150.634 31.0645 154.199 24.9538C151.653 30.5553 154.708 31.5738 161.17 26.0743C159.8 29.5369 158.273 31.0645 168.321 26.0743C166.42 35.1383 174.911 25.3964 176.605 29.5369C179.454 36.5017 183.29 17.0717 169.476 14.7693Z" fill="#200A00"/>
<path d="M149.5 39C151.333 39.6667 154.9 41.6 154.5 44" stroke="#DAB198" stroke-opacity="0.35" stroke-linecap="round"/>
<path d="M175.031 39C173.198 39.6667 169.631 41.6 170.031 44" stroke="#DAB198" stroke-opacity="0.35" stroke-linecap="round"/>
<path d="M159 44C160.2 43.2852 162.2 42.1618 165 44" stroke="#212121" stroke-linecap="round"/>
<ellipse cx="52.4428" cy="93.5683" rx="14.2583" ry="3.05535" fill="url(#paint1_radial_19_1945)" fill-opacity="0.25"/>
<path fill-rule="evenodd" clip-rule="evenodd" d="M62.4502 65.9123C63.526 63.5188 64.7889 60.7092 62.5732 56.5899C58.397 48.8252 56.5308 41.7136 58.405 40.7055C60.2793 39.6975 65.1841 45.1747 69.3604 52.9393C71.621 57.1424 70.9893 64.0656 69.0985 68.6057L62.2306 66.4038C62.3021 66.2418 62.3757 66.0781 62.4502 65.9123Z" fill="#5F2D00"/>
<path d="M69.0985 68.6057C67.4962 72.4528 64.9899 74.5888 62.5732 71.9085C60.8397 69.9858 61.3886 68.3126 62.2306 66.4038L69.0985 68.6057Z" fill="#FED0B5"/>
<path d="M62.9149 66.0981L68.8078 67.9874C69.6341 65.8475 70.184 63.2201 70.2866 60.6264C70.3964 57.8511 69.9921 55.1694 68.92 53.1762C66.845 49.3181 64.5962 46.0429 62.647 43.8662C61.6697 42.7749 60.7866 41.9811 60.0552 41.5239C59.286 41.043 58.851 41.0334 58.6419 41.1459C58.4328 41.2584 58.201 41.6265 58.1782 42.5334C58.1565 43.3957 58.332 44.5701 58.7038 45.9871C59.4455 48.8133 60.9385 52.495 63.0136 56.353C64.1671 58.4976 64.4282 60.3318 64.2428 61.955C64.0607 63.549 63.4491 64.9096 62.9171 66.0933L62.9149 66.0981ZM68.4191 68.9129L62.51 67.0184C62.1819 67.801 61.9552 68.4925 61.9359 69.1653C61.9142 69.9192 62.1536 70.6963 62.9446 71.5737C63.4998 72.1895 64.0192 72.4834 64.4824 72.5734C64.9385 72.662 65.4037 72.5654 65.8833 72.2765C66.7838 71.7342 67.6722 70.5486 68.4191 68.9129Z" stroke="black"/>
<circle cx="37.1493" cy="29.1551" r="4.45423" fill="#FED0B5" stroke="black"/>
<g filter="url(#filter1_i_19_1945)">
<path d="M44.5413 91.9739C40.688 76.5607 41.2385 68.8541 41.2385 68.8541H63.8078C63.8078 68.8541 63.8078 77.6617 60.5049 91.9739C60.0216 94.0686 55.4025 94.0857 55.0002 91.9739C52.7984 80.414 53.8993 75.4598 52.7984 75.4598C51.6974 75.4598 52.7984 80.414 50.046 91.9739C49.5481 94.0652 45.0627 94.0594 44.5413 91.9739Z" fill="#142C42"/>
</g>
<path d="M44.5413 91.9739C40.688 76.5607 41.2385 68.8541 41.2385 68.8541H63.8078C63.8078 68.8541 63.8078 77.6617 60.5049 91.9739C60.0216 94.0686 55.4025 94.0857 55.0002 91.9739C52.7984 80.414 53.8993 75.4598 52.7984 75.4598C51.6974 75.4598 52.7984 80.414 50.046 91.9739C49.5481 94.0652 45.0627 94.0594 44.5413 91.9739Z" stroke="black"/>
<path fill-rule="evenodd" clip-rule="evenodd" d="M42.035 45.9379C42.8813 43.0539 44.7679 41.1801 47.0944 40.1421L51.4982 48.9608L55.902 57.7795L58.3791 49.8718L60.8562 41.9641C62.2132 43.0419 63.2077 44.3889 63.6085 45.9379C63.7779 46.5923 63.9383 47.1971 64.0892 47.7658C65.7069 53.8631 66.22 55.7971 64.7095 69.9551H42.035C37.2153 62.3487 38.9182 56.5507 41.8606 46.532L42.035 45.9379Z" fill="#5F2D00"/>
<path d="M57.6116 40.1421C55.3785 39.279 52.8129 38.9313 50.3973 39.2389C51.3147 40.6484 53.1496 43.6875 53.1496 44.5682C53.1496 45.449 52.0487 47.8636 51.4982 48.9608L55.902 57.7795L58.3791 49.8718C57.5534 49.0214 55.8426 46.7701 55.605 44.5682C55.3675 42.3663 56.8437 40.7 57.6116 40.1421Z" fill="#BE5969"/>
<path d="M60.8562 41.9641C59.9215 41.2218 58.8148 40.6071 57.6116 40.1421C56.8437 40.7 55.3675 42.3663 55.605 44.5682C55.8426 46.7701 57.5534 49.0214 58.3791 49.8718L60.8562 41.9641Z" fill="white"/>
<path d="M50.3973 39.2389C49.2447 39.3857 48.1263 39.6817 47.0944 40.1421L51.4982 48.9608C52.0487 47.8636 53.1496 45.449 53.1496 44.5682C53.1496 43.6875 51.3147 40.6484 50.3973 39.2389Z" fill="white"/>
<path d="M55.4546 58.0029L56.0085 59.112L56.3791 57.929L58.8562 50.0213L61.1064 42.8381C62.1042 43.7683 62.8127 44.8582 63.1245 46.0632C63.2942 46.7191 63.455 47.3252 63.6058 47.8935L63.6059 47.894C64.4149 50.943 64.9341 52.9046 65.073 55.8611C65.2097 58.7711 64.9778 62.6541 64.2597 69.4551H42.3119C40.0704 65.8333 39.3547 62.6462 39.5363 59.1742C39.7237 55.5926 40.8638 51.7004 42.3403 46.6729L42.3404 46.6729L42.5148 46.0788L42.5148 46.0787C43.2632 43.5283 44.8625 41.8202 46.8662 40.8043L51.0509 49.1842L55.4546 58.0029ZM60.2746 42.1482L58.1688 48.8703C57.8621 48.4862 57.5196 48.0076 57.2014 47.4716C56.659 46.5578 56.2101 45.5155 56.1021 44.5146C55.9112 42.7448 56.9793 41.3366 57.6962 40.714C58.6409 41.1019 59.5135 41.5847 60.2746 42.1482ZM51.4894 47.824L47.7812 40.3982C48.5331 40.1087 49.3294 39.9036 50.1502 39.7783C50.5934 40.4714 51.1809 41.4335 51.679 42.3422C51.9623 42.8589 52.2121 43.3501 52.3897 43.7607C52.4785 43.9661 52.5461 44.144 52.5908 44.2902C52.6377 44.4438 52.6496 44.5319 52.6496 44.5682C52.6496 44.7093 52.6006 44.9649 52.4906 45.3262C52.3848 45.6741 52.2358 46.0778 52.0668 46.4959C51.8837 46.9487 51.6804 47.4103 51.4894 47.824ZM51.2573 39.6582C53.0696 39.539 54.9403 39.7844 56.6538 40.3339C55.832 41.2084 54.9034 42.7265 55.1079 44.6218C55.2375 45.8228 55.7628 47.0071 56.3415 47.982C56.8379 48.8182 57.3905 49.5285 57.815 50L55.7954 56.447L52.0566 48.9599C52.3289 48.4042 52.6876 47.6282 52.9939 46.8708C53.1689 46.4379 53.3296 46.0042 53.4473 45.6174C53.561 45.244 53.6496 44.8675 53.6496 44.5682C53.6496 44.3843 53.6042 44.1848 53.5472 43.9981C53.4879 43.804 53.405 43.589 53.3075 43.3636C53.1124 42.9126 52.8461 42.3908 52.5559 41.8615C52.1392 41.1012 51.6638 40.3085 51.2573 39.6582Z" stroke="black"/>
<path fill-rule="evenodd" clip-rule="evenodd" d="M42.4354 66.1608C41.3596 63.7672 40.0967 60.9577 42.3124 56.8383C46.4886 49.0737 48.3548 41.962 46.4805 40.954C44.6063 39.9459 39.7015 45.4232 35.5252 53.1878C33.2646 57.3908 33.8963 64.314 35.7871 68.8541L42.655 66.6522C42.5835 66.4902 42.5099 66.3265 42.4354 66.1608Z" fill="#5F2D00"/>
<path d="M35.7871 68.8541C37.3894 72.7013 39.8957 74.8372 42.3124 72.1569C44.0459 70.2343 43.497 68.5611 42.655 66.6522L35.7871 68.8541Z" fill="#FED0B5"/>
<path d="M36.4665 69.1614L42.3756 67.2669C42.7037 68.0494 42.9304 68.7409 42.9497 69.4138C42.9714 70.1677 42.732 70.9448 41.941 71.8221C41.3858 72.4379 40.8664 72.7318 40.4032 72.8218C39.947 72.9104 39.4819 72.8138 39.0023 72.525C38.1018 71.9827 37.2134 70.797 36.4665 69.1614ZM41.9707 66.3465L36.0778 68.2358C35.2515 66.0959 34.7016 63.4685 34.599 60.8748C34.4892 58.0995 34.8935 55.4179 35.9656 53.4246C38.0406 49.5666 40.2894 46.2914 42.2386 44.1147C43.2159 43.0233 44.099 42.2296 44.8304 41.7723C45.5996 41.2914 46.0346 41.2818 46.2437 41.3943C46.4528 41.5068 46.6846 41.875 46.7074 42.7818C46.7291 43.6442 46.5536 44.8185 46.1817 46.2355C45.4401 49.0617 43.9471 52.7434 41.872 56.6015C40.7185 58.746 40.4574 60.5802 40.6428 62.2035C40.8249 63.7974 41.4365 65.158 41.9685 66.3417L41.9707 66.3465Z" stroke="black"/>
<path d="M69.5422 24.866C69.5422 25.3958 69.5454 25.9173 69.5486 26.4301C69.5599 28.2441 69.5705 29.9503 69.4345 31.537C69.2607 33.565 68.8505 35.3327 67.934 36.7969C66.1257 39.6855 62.1904 41.6141 53.3331 41.6141C46.9619 41.6141 43.5002 39.8948 41.335 37.0291C39.1326 34.1142 38.2045 29.9448 37.1241 24.8143C37.1511 15.5734 44.4125 8.11792 53.3331 8.11792C62.2703 8.11792 69.5422 15.6012 69.5422 24.866Z" fill="#FED0B5" stroke="black"/>
<path d="M57 24C58 23.2852 59.6667 22.1618 62 24" stroke="#FCFFFF" stroke-linecap="round"/>
<path d="M45 25.8497C46.2599 26.1928 48.3386 26.7 50.1973 24.1654" stroke="#FCFFFF" stroke-linecap="round"/>
<ellipse cx="48.5" cy="29" rx="1.5" ry="2" fill="black"/>
<ellipse cx="59.5" cy="29" rx="1.5" ry="2" fill="black"/>
<path d="M60.3333 7.70622C32.305 3.52173 35.367 19.0825 35 24.2202C38.9634 25.5413 42.5461 23.1423 41.4681 18.8302C42.1936 19.4751 49.0141 22.1712 51.1701 17.7957C57.3362 17.1456 64.6203 17.5716 67.3401 24.2202C70.1894 31.1851 74.1847 9.77416 60.3333 7.70622Z" fill="#FCFFFF"/>
<path d="M16.5828 57H90.0675L106 63H0L16.5828 57Z" fill="#A6634A"/>
<rect y="63" width="106" height="34" fill="#88503B"/>
<rect x="74" y="55" width="17" height="6" fill="#358628"/>
<rect x="79.3684" y="55" width="6.26316" height="6" fill="#FCFFFF"/>
<rect width="0.894737" height="6" transform="matrix(-1 0 0 1 85.6316 55)" fill="#C38C00"/>
<rect width="0.894737" height="6" transform="matrix(-1 0 0 1 80.2632 55)" fill="#C38C00"/>
<path d="M83.624 58.608C83.624 58.728 83.5693 58.8573 83.46 58.996C83.3533 59.1347 83.2173 59.2573 83.052 59.364C82.8893 59.4707 82.732 59.5387 82.58 59.568V60.3H82.232V59.576C82.0453 59.5627 81.8507 59.5387 81.648 59.504C81.448 59.4693 81.3 59.4333 81.204 59.396V58.52H81.58C81.6973 58.736 81.8333 58.904 81.988 59.024C82.1427 59.144 82.2987 59.204 82.456 59.204C82.5787 59.204 82.6773 59.1693 82.752 59.1C82.8267 59.028 82.864 58.9413 82.864 58.84C82.864 58.76 82.832 58.684 82.768 58.612C82.7067 58.54 82.628 58.4733 82.532 58.412C82.436 58.3507 82.308 58.276 82.148 58.188C81.9507 58.0787 81.7893 57.9827 81.664 57.9C81.5413 57.8173 81.4373 57.7213 81.352 57.612C81.2667 57.5027 81.224 57.3827 81.224 57.252C81.224 57.1293 81.276 56.9973 81.38 56.856C81.484 56.7147 81.6147 56.5907 81.772 56.484C81.932 56.3773 82.0853 56.3107 82.232 56.284V55.552H82.58V56.284C82.7533 56.2973 82.928 56.3213 83.104 56.356C83.2827 56.3907 83.4147 56.4267 83.5 56.464V57.34H83.124C83.012 57.124 82.888 56.956 82.752 56.836C82.6187 56.716 82.4773 56.656 82.328 56.656C82.2213 56.656 82.1373 56.6907 82.076 56.76C82.0147 56.8267 81.984 56.912 81.984 57.016C81.984 57.1013 82.016 57.1827 82.08 57.26C82.1467 57.3347 82.228 57.404 82.324 57.468C82.4227 57.5293 82.5547 57.6053 82.72 57.696C82.9147 57.8027 83.072 57.896 83.192 57.976C83.312 58.056 83.4133 58.1493 83.496 58.256C83.5787 58.3627 83.62 58.48 83.62 58.608H83.624Z" fill="#C38C00"/>
<path d="M56.7 34.1479C55 33 54 33 52.3 34.1479C50.073 35.6515 50 35.5 49.5 35.3707C52.5 38 53.5 36 54.5 35.3707C55.3381 36.0331 56.5 38 59.5 35.3707C59 35.3707 59.0261 35.7185 56.7 34.1479Z" fill="#FCFFFF"/>
<rect x="56" y="55" width="17" height="6" fill="#358628"/>
<rect x="61.3684" y="55" width="6.26316" height="6" fill="#FCFFFF"/>
<rect width="0.894737" height="6" transform="matrix(-1 0 0 1 67.6316 55)" fill="#C38C00"/>
<rect width="0.894737" height="6" transform="matrix(-1 0 0 1 62.2632 55)" fill="#C38C00"/>
<path d="M65.624 58.608C65.624 58.728 65.5693 58.8573 65.46 58.996C65.3533 59.1347 65.2173 59.2573 65.052 59.364C64.8893 59.4707 64.732 59.5387 64.58 59.568V60.3H64.232V59.576C64.0453 59.5627 63.8507 59.5387 63.648 59.504C63.448 59.4693 63.3 59.4333 63.204 59.396V58.52H63.58C63.6973 58.736 63.8333 58.904 63.988 59.024C64.1427 59.144 64.2987 59.204 64.456 59.204C64.5787 59.204 64.6773 59.1693 64.752 59.1C64.8267 59.028 64.864 58.9413 64.864 58.84C64.864 58.76 64.832 58.684 64.768 58.612C64.7067 58.54 64.628 58.4733 64.532 58.412C64.436 58.3507 64.308 58.276 64.148 58.188C63.9507 58.0787 63.7893 57.9827 63.664 57.9C63.5413 57.8173 63.4373 57.7213 63.352 57.612C63.2667 57.5027 63.224 57.3827 63.224 57.252C63.224 57.1293 63.276 56.9973 63.38 56.856C63.484 56.7147 63.6147 56.5907 63.772 56.484C63.932 56.3773 64.0853 56.3107 64.232 56.284V55.552H64.58V56.284C64.7533 56.2973 64.928 56.3213 65.104 56.356C65.2827 56.3907 65.4147 56.4267 65.5 56.464V57.34H65.124C65.012 57.124 64.888 56.956 64.752 56.836C64.6187 56.716 64.4773 56.656 64.328 56.656C64.2213 56.656 64.1373 56.6907 64.076 56.76C64.0147 56.8267 63.984 56.912 63.984 57.016C63.984 57.1013 64.016 57.1827 64.08 57.26C64.1467 57.3347 64.228 57.404 64.324 57.468C64.4227 57.5293 64.5547 57.6053 64.72 57.696C64.9147 57.8027 65.072 57.896 65.192 57.976C65.312 58.056 65.4133 58.1493 65.496 58.256C65.5787 58.3627 65.62 58.48 65.62 58.608H65.624Z" fill="#C38C00"/>
<rect x="65" y="49" width="17" height="6" fill="#358628"/>
<rect x="70.3684" y="49" width="6.26316" height="6" fill="#FCFFFF"/>
<rect width="0.894737" height="6" transform="matrix(-1 0 0 1 76.6316 49)" fill="#C38C00"/>
<rect width="0.894737" height="6" transform="matrix(-1 0 0 1 71.2632 49)" fill="#C38C00"/>
<path d="M74.624 52.608C74.624 52.728 74.5693 52.8573 74.46 52.996C74.3533 53.1347 74.2173 53.2573 74.052 53.364C73.8893 53.4707 73.732 53.5387 73.58 53.568V54.3H73.232V53.576C73.0453 53.5627 72.8507 53.5387 72.648 53.504C72.448 53.4693 72.3 53.4333 72.204 53.396V52.52H72.58C72.6973 52.736 72.8333 52.904 72.988 53.024C73.1427 53.144 73.2987 53.204 73.456 53.204C73.5787 53.204 73.6773 53.1693 73.752 53.1C73.8267 53.028 73.864 52.9413 73.864 52.84C73.864 52.76 73.832 52.684 73.768 52.612C73.7067 52.54 73.628 52.4733 73.532 52.412C73.436 52.3507 73.308 52.276 73.148 52.188C72.9507 52.0787 72.7893 51.9827 72.664 51.9C72.5413 51.8173 72.4373 51.7213 72.352 51.612C72.2667 51.5027 72.224 51.3827 72.224 51.252C72.224 51.1293 72.276 50.9973 72.38 50.856C72.484 50.7147 72.6147 50.5907 72.772 50.484C72.932 50.3773 73.0853 50.3107 73.232 50.284V49.552H73.58V50.284C73.7533 50.2973 73.928 50.3213 74.104 50.356C74.2827 50.3907 74.4147 50.4267 74.5 50.464V51.34H74.124C74.012 51.124 73.888 50.956 73.752 50.836C73.6187 50.716 73.4773 50.656 73.328 50.656C73.2213 50.656 73.1373 50.6907 73.076 50.76C73.0147 50.8267 72.984 50.912 72.984 51.016C72.984 51.1013 73.016 51.1827 73.08 51.26C73.1467 51.3347 73.228 51.404 73.324 51.468C73.4227 51.5293 73.5547 51.6053 73.72 51.696C73.9147 51.8027 74.072 51.896 74.192 51.976C74.312 52.056 74.4133 52.1493 74.496 52.256C74.5787 52.3627 74.62 52.48 74.62 52.608H74.624Z" fill="#C38C00"/>
<rect x="10" y="55" width="17" height="6" fill="#358628"/>
<rect x="15.3684" y="55" width="6.26316" height="6" fill="#FCFFFF"/>
<rect width="0.894737" height="6" transform="matrix(-1 0 0 1 21.6316 55)" fill="#C38C00"/>
<rect width="0.894737" height="6" transform="matrix(-1 0 0 1 16.2632 55)" fill="#C38C00"/>
<path d="M19.624 58.608C19.624 58.728 19.5693 58.8573 19.46 58.996C19.3533 59.1347 19.2173 59.2573 19.052 59.364C18.8893 59.4707 18.732 59.5387 18.58 59.568V60.3H18.232V59.576C18.0453 59.5627 17.8507 59.5387 17.648 59.504C17.448 59.4693 17.3 59.4333 17.204 59.396V58.52H17.58C17.6973 58.736 17.8333 58.904 17.988 59.024C18.1427 59.144 18.2987 59.204 18.456 59.204C18.5787 59.204 18.6773 59.1693 18.752 59.1C18.8267 59.028 18.864 58.9413 18.864 58.84C18.864 58.76 18.832 58.684 18.768 58.612C18.7067 58.54 18.628 58.4733 18.532 58.412C18.436 58.3507 18.308 58.276 18.148 58.188C17.9507 58.0787 17.7893 57.9827 17.664 57.9C17.5413 57.8173 17.4373 57.7213 17.352 57.612C17.2667 57.5027 17.224 57.3827 17.224 57.252C17.224 57.1293 17.276 56.9973 17.38 56.856C17.484 56.7147 17.6147 56.5907 17.772 56.484C17.932 56.3773 18.0853 56.3107 18.232 56.284V55.552H18.58V56.284C18.7533 56.2973 18.928 56.3213 19.104 56.356C19.2827 56.3907 19.4147 56.4267 19.5 56.464V57.34H19.124C19.012 57.124 18.888 56.956 18.752 56.836C18.6187 56.716 18.4773 56.656 18.328 56.656C18.2213 56.656 18.1373 56.6907 18.076 56.76C18.0147 56.8267 17.984 56.912 17.984 57.016C17.984 57.1013 18.016 57.1827 18.08 57.26C18.1467 57.3347 18.228 57.404 18.324 57.468C18.4227 57.5293 18.5547 57.6053 18.72 57.696C18.9147 57.8027 19.072 57.896 19.192 57.976C19.312 58.056 19.4133 58.1493 19.496 58.256C19.5787 58.3627 19.62 58.48 19.62 58.608H19.624Z" fill="#C38C00"/>
<rect x="28" y="55" width="17" height="6" fill="#358628"/>
<rect x="33.3684" y="55" width="6.26316" height="6" fill="#FCFFFF"/>
<rect width="0.894737" height="6" transform="matrix(-1 0 0 1 39.6316 55)" fill="#C38C00"/>
<rect width="0.894737" height="6" transform="matrix(-1 0 0 1 34.2632 55)" fill="#C38C00"/>
<path d="M37.624 58.608C37.624 58.728 37.5693 58.8573 37.46 58.996C37.3533 59.1347 37.2173 59.2573 37.052 59.364C36.8893 59.4707 36.732 59.5387 36.58 59.568V60.3H36.232V59.576C36.0453 59.5627 35.8507 59.5387 35.648 59.504C35.448 59.4693 35.3 59.4333 35.204 59.396V58.52H35.58C35.6973 58.736 35.8333 58.904 35.988 59.024C36.1427 59.144 36.2987 59.204 36.456 59.204C36.5787 59.204 36.6773 59.1693 36.752 59.1C36.8267 59.028 36.864 58.9413 36.864 58.84C36.864 58.76 36.832 58.684 36.768 58.612C36.7067 58.54 36.628 58.4733 36.532 58.412C36.436 58.3507 36.308 58.276 36.148 58.188C35.9507 58.0787 35.7893 57.9827 35.664 57.9C35.5413 57.8173 35.4373 57.7213 35.352 57.612C35.2667 57.5027 35.224 57.3827 35.224 57.252C35.224 57.1293 35.276 56.9973 35.38 56.856C35.484 56.7147 35.6147 56.5907 35.772 56.484C35.932 56.3773 36.0853 56.3107 36.232 56.284V55.552H36.58V56.284C36.7533 56.2973 36.928 56.3213 37.104 56.356C37.2827 56.3907 37.4147 56.4267 37.5 56.464V57.34H37.124C37.012 57.124 36.888 56.956 36.752 56.836C36.6187 56.716 36.4773 56.656 36.328 56.656C36.2213 56.656 36.1373 56.6907 36.076 56.76C36.0147 56.8267 35.984 56.912 35.984 57.016C35.984 57.1013 36.016 57.1827 36.08 57.26C36.1467 57.3347 36.228 57.404 36.324 57.468C36.4227 57.5293 36.5547 57.6053 36.72 57.696C36.9147 57.8027 37.072 57.896 37.192 57.976C37.312 58.056 37.4133 58.1493 37.496 58.256C37.5787 58.3627 37.62 58.48 37.62 58.608H37.624Z" fill="#C38C00"/>
<rect x="19" y="49" width="17" height="6" fill="#358628"/>
<rect x="24.3684" y="49" width="6.26316" height="6" fill="#FCFFFF"/>
<rect width="0.894737" height="6" transform="matrix(-1 0 0 1 30.6316 49)" fill="#C38C00"/>
<rect width="0.894737" height="6" transform="matrix(-1 0 0 1 25.2632 49)" fill="#C38C00"/>
<path d="M28.624 52.608C28.624 52.728 28.5693 52.8573 28.46 52.996C28.3533 53.1347 28.2173 53.2573 28.052 53.364C27.8893 53.4707 27.732 53.5387 27.58 53.568V54.3H27.232V53.576C27.0453 53.5627 26.8507 53.5387 26.648 53.504C26.448 53.4693 26.3 53.4333 26.204 53.396V52.52H26.58C26.6973 52.736 26.8333 52.904 26.988 53.024C27.1427 53.144 27.2987 53.204 27.456 53.204C27.5787 53.204 27.6773 53.1693 27.752 53.1C27.8267 53.028 27.864 52.9413 27.864 52.84C27.864 52.76 27.832 52.684 27.768 52.612C27.7067 52.54 27.628 52.4733 27.532 52.412C27.436 52.3507 27.308 52.276 27.148 52.188C26.9507 52.0787 26.7893 51.9827 26.664 51.9C26.5413 51.8173 26.4373 51.7213 26.352 51.612C26.2667 51.5027 26.224 51.3827 26.224 51.252C26.224 51.1293 26.276 50.9973 26.38 50.856C26.484 50.7147 26.6147 50.5907 26.772 50.484C26.932 50.3773 27.0853 50.3107 27.232 50.284V49.552H27.58V50.284C27.7533 50.2973 27.928 50.3213 28.104 50.356C28.2827 50.3907 28.4147 50.4267 28.5 50.464V51.34H28.124C28.012 51.124 27.888 50.956 27.752 50.836C27.6187 50.716 27.4773 50.656 27.328 50.656C27.2213 50.656 27.1373 50.6907 27.076 50.76C27.0147 50.8267 26.984 50.912 26.984 51.016C26.984 51.1013 27.016 51.1827 27.08 51.26C27.1467 51.3347 27.228 51.404 27.324 51.468C27.4227 51.5293 27.5547 51.6053 27.72 51.696C27.9147 51.8027 28.072 51.896 28.192 51.976C28.312 52.056 28.4133 52.1493 28.496 52.256C28.5787 52.3627 28.62 52.48 28.62 52.608H28.624Z" fill="#C38C00"/>
<path d="M80.5612 18.4605C79.78 21.723 77.1675 24.6295 77.1362 24.6618C76.9987 24.8107 76.9612 25.0308 77.0425 25.225C77.1237 25.4192 77.2987 25.5357 77.4987 25.5357C81.6425 25.5357 84.7487 23.4772 86.2862 22.2085L80.5612 18.4605Z" fill="white"/>
<path d="M78.9987 9C78.9987 4.02944 83.0282 0 87.9987 0H147.999C152.969 0 156.999 4.02944 156.999 9V14C156.999 18.9706 152.969 23 147.999 23H87.9987C83.0282 23 78.9987 18.9706 78.9987 14V9Z" fill="white"/>
<path d="M85.368 14V10.592H84.024V9.8H87.684V10.592H86.34V14H85.368ZM91.087 9.8H92.059V14H91.087V9.8ZM89.179 14H88.207V9.8H89.179V14ZM91.159 12.278H89.107V11.456H91.159V12.278ZM93.9467 11.492H95.9687V12.248H93.9467V11.492ZM94.0187 13.22H96.3047V14H93.0527V9.8H96.2267V10.58H94.0187V13.22ZM98.0811 14V12.284L98.3031 12.872L96.4551 9.8H97.4871L98.9031 12.158H98.3091L99.7311 9.8H100.685L98.8371 12.872L99.0531 12.284V14H98.0811ZM102.239 14L104.111 9.8H105.071L106.949 14H105.929L104.393 10.292H104.777L103.235 14H102.239ZM103.175 13.1L103.433 12.362H105.593L105.857 13.1H103.175ZM107.385 14V9.8H109.203C109.579 9.8 109.903 9.862 110.175 9.986C110.447 10.106 110.657 10.28 110.805 10.508C110.953 10.736 111.027 11.008 111.027 11.324C111.027 11.636 110.953 11.906 110.805 12.134C110.657 12.358 110.447 12.53 110.175 12.65C109.903 12.77 109.579 12.83 109.203 12.83H107.925L108.357 12.404V14H107.385ZM110.055 14L109.005 12.476H110.043L111.105 14H110.055ZM108.357 12.512L107.925 12.056H109.149C109.449 12.056 109.673 11.992 109.821 11.864C109.969 11.732 110.043 11.552 110.043 11.324C110.043 11.092 109.969 10.912 109.821 10.784C109.673 10.656 109.449 10.592 109.149 10.592H107.925L108.357 10.13V12.512ZM112.691 11.492H114.713V12.248H112.691V11.492ZM112.763 13.22H115.049V14H111.797V9.8H114.971V10.58H112.763V13.22ZM118.295 14.072C118.011 14.072 117.749 14.02 117.509 13.916C117.273 13.808 117.079 13.656 116.927 13.46L117.467 12.812C117.583 12.964 117.705 13.08 117.833 13.16C117.961 13.236 118.099 13.274 118.247 13.274C118.643 13.274 118.841 13.042 118.841 12.578V10.58H117.365V9.8H119.807V12.524C119.807 13.044 119.679 13.432 119.423 13.688C119.167 13.944 118.791 14.072 118.295 14.072ZM122.634 14.072C122.038 14.072 121.572 13.906 121.236 13.574C120.9 13.242 120.732 12.768 120.732 12.152V9.8H121.704V12.116C121.704 12.516 121.786 12.804 121.95 12.98C122.114 13.156 122.344 13.244 122.64 13.244C122.936 13.244 123.166 13.156 123.33 12.98C123.494 12.804 123.576 12.516 123.576 12.116V9.8H124.536V12.152C124.536 12.768 124.368 13.242 124.032 13.574C123.696 13.906 123.23 14.072 122.634 14.072ZM126.876 14.072C126.54 14.072 126.218 14.028 125.91 13.94C125.602 13.848 125.354 13.73 125.166 13.586L125.496 12.854C125.676 12.982 125.888 13.088 126.132 13.172C126.38 13.252 126.63 13.292 126.882 13.292C127.074 13.292 127.228 13.274 127.344 13.238C127.464 13.198 127.552 13.144 127.608 13.076C127.664 13.008 127.692 12.93 127.692 12.842C127.692 12.73 127.648 12.642 127.56 12.578C127.472 12.51 127.356 12.456 127.212 12.416C127.068 12.372 126.908 12.332 126.732 12.296C126.56 12.256 126.386 12.208 126.21 12.152C126.038 12.096 125.88 12.024 125.736 11.936C125.592 11.848 125.474 11.732 125.382 11.588C125.294 11.444 125.25 11.26 125.25 11.036C125.25 10.796 125.314 10.578 125.442 10.382C125.574 10.182 125.77 10.024 126.03 9.908C126.294 9.788 126.624 9.728 127.02 9.728C127.284 9.728 127.544 9.76 127.8 9.824C128.056 9.884 128.282 9.976 128.478 10.1L128.178 10.838C127.982 10.726 127.786 10.644 127.59 10.592C127.394 10.536 127.202 10.508 127.014 10.508C126.826 10.508 126.672 10.53 126.552 10.574C126.432 10.618 126.346 10.676 126.294 10.748C126.242 10.816 126.216 10.896 126.216 10.988C126.216 11.096 126.26 11.184 126.348 11.252C126.436 11.316 126.552 11.368 126.696 11.408C126.84 11.448 126.998 11.488 127.17 11.528C127.346 11.568 127.52 11.614 127.692 11.666C127.868 11.718 128.028 11.788 128.172 11.876C128.316 11.964 128.432 12.08 128.52 12.224C128.612 12.368 128.658 12.55 128.658 12.77C128.658 13.006 128.592 13.222 128.46 13.418C128.328 13.614 128.13 13.772 127.866 13.892C127.606 14.012 127.276 14.072 126.876 14.072ZM130.134 14V10.592H128.79V9.8H132.45V10.592H131.106V14H130.134ZM134.672 14V9.8H135.644V13.208H137.75V14H134.672ZM137.764 14L139.636 9.8H140.596L142.474 14H141.454L139.918 10.292H140.302L138.76 14H137.764ZM138.7 13.1L138.958 12.362H141.118L141.382 13.1H138.7ZM142.64 14V13.37L145.238 10.238L145.358 10.592H142.688V9.8H146.222V10.43L143.63 13.562L143.51 13.208H146.312V14H142.64ZM147.979 14V12.284L148.201 12.872L146.353 9.8H147.386L148.802 12.158H148.208L149.63 9.8H150.584L148.736 12.872L148.952 12.284V14H147.979ZM151.107 12.542L150.921 9.8H152.037L151.851 12.542H151.107ZM151.479 14.048C151.311 14.048 151.173 13.994 151.065 13.886C150.957 13.778 150.903 13.65 150.903 13.502C150.903 13.35 150.957 13.224 151.065 13.124C151.173 13.02 151.311 12.968 151.479 12.968C151.651 12.968 151.789 13.02 151.893 13.124C152.001 13.224 152.055 13.35 152.055 13.502C152.055 13.65 152.001 13.778 151.893 13.886C151.789 13.994 151.651 14.048 151.479 14.048Z" fill="black"/>
<defs>
<filter id="filter0_i_19_1945" x="150.5" y="71.5" width="21.9034" height="23.8467" filterUnits="userSpaceOnUse" color-interpolation-filters="sRGB">
<feFlood flood-opacity="0" result="BackgroundImageFix"/>
<feBlend mode="normal" in="SourceGraphic" in2="BackgroundImageFix" result="shape"/>
<feColorMatrix in="SourceAlpha" type="matrix" values="0 0 0 0 0 0 0 0 0 0 0 0 0 0 0 0 0 0 127 0" result="hardAlpha"/>
<feOffset/>
<feGaussianBlur stdDeviation="2.5"/>
<feComposite in2="hardAlpha" operator="arithmetic" k2="-1" k3="1"/>
<feColorMatrix type="matrix" values="0 0 0 0 0 0 0 0 0 0 0 0 0 0 0 0 0 0 1 0"/>
<feBlend mode="normal" in2="shape" result="effect1_innerShadow_19_1945"/>
</filter>
<filter id="filter1_i_19_1945" x="40.7113" y="68.3541" width="23.5965" height="25.6972" filterUnits="userSpaceOnUse" color-interpolation-filters="sRGB">
<feFlood flood-opacity="0" result="BackgroundImageFix"/>
<feBlend mode="normal" in="SourceGraphic" in2="BackgroundImageFix" result="shape"/>
<feColorMatrix in="SourceAlpha" type="matrix" values="0 0 0 0 0 0 0 0 0 0 0 0 0 0 0 0 0 0 127 0" result="hardAlpha"/>
<feOffset/>
<feGaussianBlur stdDeviation="2.5"/>
<feComposite in2="hardAlpha" operator="arithmetic" k2="-1" k3="1"/>
<feColorMatrix type="matrix" values="0 0 0 0 0 0 0 0 0 0 0 0 0 0 0 0 0 0 1 0"/>
<feBlend mode="normal" in2="shape" result="effect1_innerShadow_19_1945"/>
</filter>
<radialGradient id="paint0_radial_19_1945" cx="0" cy="0" r="1" gradientUnits="userSpaceOnUse" gradientTransform="translate(14.2583 3.05535) scale(14.2583 3.05535)">
<stop offset="0.65"/>
<stop offset="1" stop-opacity="0"/>
</radialGradient>
<radialGradient id="paint1_radial_19_1945" cx="0" cy="0" r="1" gradientUnits="userSpaceOnUse" gradientTransform="translate(52.4428 93.5683) scale(14.2583 3.05535)">
<stop offset="0.65"/>
<stop offset="1" stop-opacity="0"/>
</radialGradient>
</defs>
</svg>
